<mxfile host="app.diagrams.net" modified="2023-06-12T15:43:01.904Z" agent="Mozilla/5.0 (Macintosh; Intel Mac OS X 10_15_7) AppleWebKit/537.36 (KHTML, like Gecko) Chrome/113.0.0.0 Safari/537.36" version="21.3.6" etag="Wev9StvpsGGFtduJcST9" type="github">
  <diagram name="第 1 页" id="ThrLly4dvOyv9YdBLNiv">
    <mxGraphModel>
      <root>
        <mxCell id="0" />
        <mxCell id="1" parent="0" />
      </root>
    </mxGraphModel>
  </diagram>
</mxfile>
